<?xml version="1.0" encoding="utf-8"?>
<!-- Generator: Adobe Illustrator 25.4.1, SVG Export Plug-In . SVG Version: 6.00 Build 0)  -->
<svg version="1.1" id="Layer_1" xmlns="http://www.w3.org/2000/svg" xmlns:xlink="http://www.w3.org/1999/xlink" x="0px" y="0px"
	 viewBox="0 0 300 86.3" style="enable-background:new 0 0 300 86.3;" xml:space="preserve">
<style type="text/css">
	.st0{fill:#1F3D8B;}
	.st1{fill:#107EC1;}
</style>
<g>
	<g>
		<g>
			<path class="st0" d="M5,70.5V14.9h9.9v32.7h0.1l11.8-15.3h11.7l-14.2,17l16,21.1H27.8L15.1,52h-0.1v18.5H5z"/>
			<path class="st0" d="M76.5,60.3v8.1c-3.7,2-8,3-13.1,3c-6.3,0-11.2-1.7-14.7-5.2c-3.5-3.5-5.2-8.3-5.2-14.6
				c0-5.8,1.5-10.6,4.4-14.2c3.2-3.9,7.6-5.9,13.3-5.9c6.7,0,11.5,2.2,14.4,6.5c2.5,3.7,3.8,9.2,3.8,16.5H53c0.2,3,1.3,5.4,3.3,7.1
				c2,1.7,4.5,2.6,7.6,2.6C67.7,64.1,72,62.8,76.5,60.3z M53,47.7h16.9c-0.3-6-3-9-8.1-9C56.5,38.7,53.5,41.7,53,47.7z"/>
			<path class="st0" d="M87.1,70.5V32.3h9.4v5.2h0.1c2.9-4,7-6.1,12.5-6.1c4.3,0,7.6,1.4,9.8,4.2c2.1,2.6,3.1,6.2,3.1,10.7v24.1
				h-9.9V50.1c0-3.4-0.3-5.8-0.8-7.3c-0.9-2.5-2.8-3.7-5.6-3.7c-3.2,0-5.6,1.5-7,4.5c-1.1,2.2-1.7,4.9-1.7,8.1v18.7H87.1z"/>
			<path class="st0" d="M135.6,59V39.6h-7.3v-7.3h7.3v-7.6l9.9-3.2v10.8h8.8v7.3h-8.8v17.8c0,4.2,1.6,6.3,4.7,6.3
				c1.9,0,3.4-0.3,4.5-1l0.3,7.8c-2.1,0.6-4.5,0.9-7.3,0.9c-3.9,0-6.8-1.1-8.9-3.3C136.7,65.9,135.6,62.8,135.6,59z"/>
			<path class="st1" d="M161.4,70.5V14.9h9.9v32.7h0.1l11.8-15.3H195l-14.2,17l16,21.1h-12.6L171.5,52h-0.1v18.5H161.4z"/>
			<path class="st1" d="M204.3,42.9l-0.3-8.5c4.2-1.9,8.6-2.9,13.3-2.9c5.8,0,10,1.3,12.6,3.8c2.6,2.5,3.9,6.6,3.9,12.3v4.9
				c0,2.6,0,5.8,0.1,9.6c0,2.7,0.2,5.5,0.4,8.5h-8.7c-0.1-0.5-0.2-2.4-0.4-5.7H225c-1.1,2-2.8,3.6-5,4.8c-2.2,1.2-4.4,1.8-6.8,1.8
				c-3.6,0-6.7-1-9.2-3c-2.8-2.1-4.1-4.9-4.1-8.4c0-5.1,2.2-8.8,6.5-10.9c3-1.5,7.3-2.2,12.8-2.2h5.5c0-3-0.7-5.1-2-6.4
				c-1.4-1.2-3.5-1.9-6.6-1.9C211.9,38.7,208,40.1,204.3,42.9z M209.4,59.4c0,3.1,2.1,4.7,6.3,4.7c3.9,0,6.7-1.8,8.1-5.5
				c0.6-1.5,0.9-3.5,0.9-5.8h-4.3C213.1,52.9,209.4,55,209.4,59.4z"/>
			<path class="st1" d="M243.7,70.5V32.3h8.8V41h0.1c0.2-2.1,1.3-4.1,3.2-6.1c2.1-2.3,4.5-3.4,7.3-3.4c1.3,0,2.3,0.1,3,0.3v10
				c-0.9-0.5-2.4-0.8-4.4-0.8c-3.5,0-5.8,1.9-7,5.7c-0.7,2.1-1,5.4-1,9.8v14H243.7z"/>
			<path class="st1" d="M275.6,59V39.6h-7.3v-7.3h7.3v-7.6l9.9-3.2v10.8h8.8v7.3h-8.8v17.8c0,4.2,1.6,6.3,4.7,6.3
				c1.9,0,3.4-0.3,4.5-1l0.3,7.8c-2.1,0.6-4.5,0.9-7.3,0.9c-3.9,0-6.8-1.1-8.9-3.3C276.6,65.9,275.6,62.8,275.6,59z"/>
		</g>
	</g>
</g>
</svg>
